<svg width="258" height="253" viewBox="0 0 258 253" fill="none" xmlns="http://www.w3.org/2000/svg">
<path opacity="0.1" d="M231.492 252.69C358.891 252.69 462.168 149.406 462.168 21.9978C462.168 -105.41 358.891 -208.694 231.492 -208.694C104.093 -208.694 0.815979 -105.41 0.815979 21.9978C0.815979 149.406 104.093 252.69 231.492 252.69Z" fill="url(#paint0_linear_36_1544)" fill-opacity="0.7"/>
<path opacity="0.1" d="M231.492 252.126C358.579 252.126 461.604 149.094 461.604 21.9982C461.604 -105.098 358.579 -208.13 231.492 -208.13C104.405 -208.13 1.37997 -105.098 1.37997 21.9982C1.37997 149.094 104.405 252.126 231.492 252.126Z" stroke="white"/>
<path opacity="0.1" d="M231.492 187.261C322.758 187.261 396.744 113.27 396.744 21.9979C396.744 -69.2746 322.758 -143.266 231.492 -143.266C140.226 -143.266 66.24 -69.2746 66.24 21.9979C66.24 113.27 140.226 187.261 231.492 187.261Z" fill="url(#paint1_linear_36_1544)" fill-opacity="0.7"/>
<path opacity="0.1" d="M231.492 186.697C322.447 186.697 396.18 112.958 396.18 21.9974C396.18 -68.9637 322.447 -142.702 231.492 -142.702C140.537 -142.702 66.804 -68.9637 66.804 21.9974C66.804 112.958 140.537 186.697 231.492 186.697Z" stroke="white"/>
<path opacity="0.1" d="M231.492 122.961C287.248 122.961 332.448 77.7586 332.448 21.9982C332.448 -33.7621 287.248 -78.9648 231.492 -78.9648C175.736 -78.9648 130.536 -33.7621 130.536 21.9982C130.536 77.7586 175.736 122.961 231.492 122.961Z" fill="url(#paint2_linear_36_1544)" fill-opacity="0.7"/>
<path opacity="0.1" d="M231.492 122.397C286.937 122.397 331.884 77.4465 331.884 21.9977C331.884 -33.4512 286.937 -78.4014 231.492 -78.4014C176.047 -78.4014 131.1 -33.4512 131.1 21.9977C131.1 77.4465 176.047 122.397 231.492 122.397Z" stroke="white"/>
<defs>
<linearGradient id="paint0_linear_36_1544" x1="377.741" y1="-144.562" x2="99.5215" y2="204.687" gradientUnits="userSpaceOnUse">
<stop stop-color="white" stop-opacity="0"/>
<stop offset="1" stop-color="white"/>
</linearGradient>
<linearGradient id="paint1_linear_36_1544" x1="336.262" y1="-97.3223" x2="136.951" y2="152.873" gradientUnits="userSpaceOnUse">
<stop stop-color="white" stop-opacity="0"/>
<stop offset="1" stop-color="white"/>
</linearGradient>
<linearGradient id="paint2_linear_36_1544" x1="295.498" y1="-50.8971" x2="173.735" y2="101.953" gradientUnits="userSpaceOnUse">
<stop stop-color="white" stop-opacity="0"/>
<stop offset="1" stop-color="white"/>
</linearGradient>
</defs>
</svg>
