<svg width="15" height="10" viewBox="0 0 14 9" fill="none" xmlns="http://www.w3.org/2000/svg">
<path d="M0.307831 7.05746L6.55783 0.807465C6.61588 0.749354 6.68481 0.703255 6.76068 0.671802C6.83656 0.640349 6.91788 0.624161 7.00002 0.624161C7.08215 0.624161 7.16348 0.640349 7.23936 0.671802C7.31523 0.703255 7.38416 0.749354 7.44221 0.807465L13.6922 7.05746C13.8095 7.17474 13.8754 7.3338 13.8754 7.49965C13.8754 7.6655 13.8095 7.82456 13.6922 7.94184C13.5749 8.05912 13.4159 8.125 13.25 8.125C13.0842 8.125 12.9251 8.05912 12.8078 7.94184L7.00002 2.13325L1.19221 7.94184C1.13414 7.99991 1.0652 8.04597 0.989328 8.0774C0.913458 8.10883 0.83214 8.125 0.750018 8.125C0.667896 8.125 0.586578 8.10883 0.510708 8.0774C0.434837 8.04597 0.365899 7.99991 0.307831 7.94184C0.249762 7.88377 0.203699 7.81483 0.172273 7.73896C0.140846 7.66309 0.12467 7.58177 0.12467 7.49965C0.12467 7.41753 0.140846 7.33621 0.172273 7.26034C0.203699 7.18447 0.249762 7.11553 0.307831 7.05746Z" fill="black"/>
</svg>